# xmcd
#
# Track frame offsets:
#	150
#	21466
#	41606
#	56329
#	72943
#	86832
#	105532
#	127005
#	143970
#	159242
#	176199
#	196527
#	215860
#	229982
#	246498
#	266537
#	286413
#	303679
#	322801
#	338862
#
# Disc length: 4791 seconds
#
# Revision: 0
# Processed by: cddbd v1.5.2PL0 Copyright (c) Steve Scherf et al.
# Submitted via: dBpowerAMP V4.0
#
DISCID=3212b514
DTITLE=Various Artist - Country Hits (2007)
DYEAR=2007
DGENRE=Country
TTITLE0=Keith Urban - Better Life
TTITLE1=The Road Hammers - Nashville Bound
TTITLE2=Reba McEntire - Love Needs A Holiday
TTITLE3=George Canyon - Somebody Wrote Love
TTITLE4=Emerson Drive - A Good Man
TTITLE5=Sugarland - Just Might (Make Me Believe)
TTITLE6=Dierks Bentley - Come A Little Closer
TTITLE7=Paul Brandt - Alberta Bound
TTITLE8=Terry Clark - She Didn't Have Time
TTITLE9=Gary Allen - Life Ain't Always Beautiful
TTITLE10=Bill Currington - Must Be Doin Something Right
TTITLE11=Carolyn Damn Johnson - Cry Baby 
TTITLE12=Joe Nicols - Tequila Makes Her Clothes Fall Off
TTITLE13=Neal McCoy - Billy's Got His Beer Goggles On
TTITLE14=Doc Walker - I Am Ready
TTITLE15=Little Big Town - Bring It On Home
TTITLE16=Amanda Wilkinson - It's Okay To Cry
TTITLE17=Johnny Reid - Time Flies
TTITLE18=Josh Turner - Your Man
TTITLE19=Patricia Conroy - Talking To Myself
EXTD=
EXTT0=
EXTT1=
EXTT2=
EXTT3=
EXTT4=
EXTT5=
EXTT6=
EXTT7=
EXTT8=
EXTT9=
EXTT10=
EXTT11=
EXTT12=
EXTT13=
EXTT14=
EXTT15=
EXTT16=
EXTT17=
EXTT18=
EXTT19=
PLAYORDER=
